<svg xmlns="http://www.w3.org/2000/svg" viewBox="0 0 1200 520" fill="#d9b35f">
  <g><circle cx="340.0" cy="67.0" r="2.8" opacity="0.57"/><circle cx="362.0" cy="67.0" r="3.1" opacity="0.70"/><circle cx="384.0" cy="67.0" r="2.6" opacity="0.44"/><circle cx="406.0" cy="67.0" r="2.9" opacity="0.57"/><circle cx="428.0" cy="67.0" r="2.5" opacity="0.70"/><circle cx="307.0" cy="89.0" r="2.6" opacity="0.66"/><circle cx="329.0" cy="89.0" r="2.9" opacity="0.39"/><circle cx="351.0" cy="89.0" r="2.5" opacity="0.52"/><circle cx="373.0" cy="89.0" r="2.8" opacity="0.66"/><circle cx="395.0" cy="89.0" r="3.1" opacity="0.39"/><circle cx="417.0" cy="89.0" r="2.6" opacity="0.52"/><circle cx="439.0" cy="89.0" r="2.9" opacity="0.66"/><circle cx="208.0" cy="111.0" r="3.1" opacity="0.35"/><circle cx="230.0" cy="111.0" r="2.6" opacity="0.48"/><circle cx="252.0" cy="111.0" r="2.9" opacity="0.61"/><circle cx="274.0" cy="111.0" r="2.5" opacity="0.35"/><circle cx="296.0" cy="111.0" r="2.8" opacity="0.48"/><circle cx="318.0" cy="111.0" r="3.1" opacity="0.61"/><circle cx="340.0" cy="111.0" r="2.6" opacity="0.35"/><circle cx="362.0" cy="111.0" r="2.9" opacity="0.48"/><circle cx="384.0" cy="111.0" r="2.5" opacity="0.61"/><circle cx="406.0" cy="111.0" r="2.8" opacity="0.35"/><circle cx="758.0" cy="111.0" r="3.1" opacity="0.48"/><circle cx="780.0" cy="111.0" r="2.6" opacity="0.61"/><circle cx="824.0" cy="111.0" r="2.5" opacity="0.48"/><circle cx="846.0" cy="111.0" r="2.8" opacity="0.61"/><circle cx="868.0" cy="111.0" r="3.1" opacity="0.35"/><circle cx="890.0" cy="111.0" r="2.6" opacity="0.48"/><circle cx="153.0" cy="133.0" r="2.6" opacity="0.70"/><circle cx="175.0" cy="133.0" r="2.9" opacity="0.44"/><circle cx="197.0" cy="133.0" r="2.5" opacity="0.57"/><circle cx="219.0" cy="133.0" r="2.8" opacity="0.70"/><circle cx="241.0" cy="133.0" r="3.1" opacity="0.44"/><circle cx="263.0" cy="133.0" r="2.6" opacity="0.57"/><circle cx="285.0" cy="133.0" r="2.9" opacity="0.70"/><circle cx="307.0" cy="133.0" r="2.5" opacity="0.44"/><circle cx="329.0" cy="133.0" r="2.8" opacity="0.57"/><circle cx="351.0" cy="133.0" r="3.1" opacity="0.70"/><circle cx="571.0" cy="133.0" r="3.1" opacity="0.44"/><circle cx="593.0" cy="133.0" r="2.6" opacity="0.57"/><circle cx="615.0" cy="133.0" r="2.9" opacity="0.70"/><circle cx="637.0" cy="133.0" r="2.5" opacity="0.44"/><circle cx="659.0" cy="133.0" r="2.8" opacity="0.57"/><circle cx="681.0" cy="133.0" r="3.1" opacity="0.70"/><circle cx="703.0" cy="133.0" r="2.6" opacity="0.44"/><circle cx="725.0" cy="133.0" r="2.9" opacity="0.57"/><circle cx="769.0" cy="133.0" r="2.8" opacity="0.44"/><circle cx="791.0" cy="133.0" r="3.1" opacity="0.57"/><circle cx="813.0" cy="133.0" r="2.6" opacity="0.70"/><circle cx="835.0" cy="133.0" r="2.9" opacity="0.44"/><circle cx="857.0" cy="133.0" r="2.5" opacity="0.57"/><circle cx="879.0" cy="133.0" r="2.8" opacity="0.70"/><circle cx="901.0" cy="133.0" r="3.1" opacity="0.44"/><circle cx="923.0" cy="133.0" r="2.6" opacity="0.57"/><circle cx="945.0" cy="133.0" r="2.9" opacity="0.70"/><circle cx="967.0" cy="133.0" r="2.5" opacity="0.44"/><circle cx="989.0" cy="133.0" r="2.8" opacity="0.57"/><circle cx="1011.0" cy="133.0" r="3.1" opacity="0.70"/><circle cx="1033.0" cy="133.0" r="2.6" opacity="0.44"/><circle cx="120.0" cy="155.0" r="2.5" opacity="0.39"/><circle cx="142.0" cy="155.0" r="2.8" opacity="0.52"/><circle cx="164.0" cy="155.0" r="3.1" opacity="0.66"/><circle cx="186.0" cy="155.0" r="2.6" opacity="0.39"/><circle cx="208.0" cy="155.0" r="2.9" opacity="0.52"/><circle cx="230.0" cy="155.0" r="2.5" opacity="0.66"/><circle cx="252.0" cy="155.0" r="2.8" opacity="0.39"/><circle cx="274.0" cy="155.0" r="3.1" opacity="0.52"/><circle cx="296.0" cy="155.0" r="2.6" opacity="0.66"/><circle cx="340.0" cy="155.0" r="2.5" opacity="0.52"/><circle cx="362.0" cy="155.0" r="2.8" opacity="0.66"/><circle cx="384.0" cy="155.0" r="3.1" opacity="0.39"/><circle cx="538.0" cy="155.0" r="2.9" opacity="0.52"/><circle cx="560.0" cy="155.0" r="2.5" opacity="0.66"/><circle cx="582.0" cy="155.0" r="2.8" opacity="0.39"/><circle cx="604.0" cy="155.0" r="3.1" opacity="0.52"/><circle cx="626.0" cy="155.0" r="2.6" opacity="0.66"/><circle cx="648.0" cy="155.0" r="2.9" opacity="0.39"/><circle cx="670.0" cy="155.0" r="2.5" opacity="0.52"/><circle cx="714.0" cy="155.0" r="3.1" opacity="0.39"/><circle cx="736.0" cy="155.0" r="2.6" opacity="0.52"/><circle cx="758.0" cy="155.0" r="2.9" opacity="0.66"/><circle cx="780.0" cy="155.0" r="2.5" opacity="0.39"/><circle cx="802.0" cy="155.0" r="2.8" opacity="0.52"/><circle cx="824.0" cy="155.0" r="3.1" opacity="0.66"/><circle cx="846.0" cy="155.0" r="2.6" opacity="0.39"/><circle cx="868.0" cy="155.0" r="2.9" opacity="0.52"/><circle cx="890.0" cy="155.0" r="2.5" opacity="0.66"/><circle cx="912.0" cy="155.0" r="2.8" opacity="0.39"/><circle cx="934.0" cy="155.0" r="3.1" opacity="0.52"/><circle cx="956.0" cy="155.0" r="2.6" opacity="0.66"/><circle cx="978.0" cy="155.0" r="2.9" opacity="0.39"/><circle cx="1000.0" cy="155.0" r="2.5" opacity="0.52"/><circle cx="1022.0" cy="155.0" r="2.8" opacity="0.66"/><circle cx="1044.0" cy="155.0" r="3.1" opacity="0.39"/><circle cx="109.0" cy="177.0" r="2.6" opacity="0.61"/><circle cx="131.0" cy="177.0" r="2.9" opacity="0.35"/><circle cx="153.0" cy="177.0" r="2.5" opacity="0.48"/><circle cx="175.0" cy="177.0" r="2.8" opacity="0.61"/><circle cx="197.0" cy="177.0" r="3.1" opacity="0.35"/><circle cx="219.0" cy="177.0" r="2.6" opacity="0.48"/><circle cx="241.0" cy="177.0" r="2.9" opacity="0.61"/><circle cx="285.0" cy="177.0" r="2.8" opacity="0.48"/><circle cx="307.0" cy="177.0" r="3.1" opacity="0.61"/><circle cx="329.0" cy="177.0" r="2.6" opacity="0.35"/><circle cx="351.0" cy="177.0" r="2.9" opacity="0.48"/><circle cx="373.0" cy="177.0" r="2.5" opacity="0.61"/><circle cx="527.0" cy="177.0" r="3.1" opacity="0.35"/><circle cx="549.0" cy="177.0" r="2.6" opacity="0.48"/><circle cx="571.0" cy="177.0" r="2.9" opacity="0.61"/><circle cx="593.0" cy="177.0" r="2.5" opacity="0.35"/><circle cx="615.0" cy="177.0" r="2.8" opacity="0.48"/><circle cx="659.0" cy="177.0" r="2.6" opacity="0.35"/><circle cx="681.0" cy="177.0" r="2.9" opacity="0.48"/><circle cx="703.0" cy="177.0" r="2.5" opacity="0.61"/><circle cx="725.0" cy="177.0" r="2.8" opacity="0.35"/><circle cx="747.0" cy="177.0" r="3.1" opacity="0.48"/><circle cx="769.0" cy="177.0" r="2.6" opacity="0.61"/><circle cx="791.0" cy="177.0" r="2.9" opacity="0.35"/><circle cx="813.0" cy="177.0" r="2.5" opacity="0.48"/><circle cx="835.0" cy="177.0" r="2.8" opacity="0.61"/><circle cx="857.0" cy="177.0" r="3.1" opacity="0.35"/><circle cx="879.0" cy="177.0" r="2.6" opacity="0.48"/><circle cx="901.0" cy="177.0" r="2.9" opacity="0.61"/><circle cx="923.0" cy="177.0" r="2.5" opacity="0.35"/><circle cx="945.0" cy="177.0" r="2.8" opacity="0.48"/><circle cx="967.0" cy="177.0" r="3.1" opacity="0.61"/><circle cx="989.0" cy="177.0" r="2.6" opacity="0.35"/><circle cx="1033.0" cy="177.0" r="2.5" opacity="0.61"/><circle cx="1055.0" cy="177.0" r="2.8" opacity="0.35"/><circle cx="1077.0" cy="177.0" r="3.1" opacity="0.48"/><circle cx="1099.0" cy="177.0" r="2.6" opacity="0.61"/><circle cx="120.0" cy="199.0" r="3.1" opacity="0.57"/><circle cx="142.0" cy="199.0" r="2.6" opacity="0.70"/><circle cx="164.0" cy="199.0" r="2.9" opacity="0.44"/><circle cx="186.0" cy="199.0" r="2.5" opacity="0.57"/><circle cx="230.0" cy="199.0" r="3.1" opacity="0.44"/><circle cx="252.0" cy="199.0" r="2.6" opacity="0.57"/><circle cx="274.0" cy="199.0" r="2.9" opacity="0.70"/><circle cx="296.0" cy="199.0" r="2.5" opacity="0.44"/><circle cx="318.0" cy="199.0" r="2.8" opacity="0.57"/><circle cx="340.0" cy="199.0" r="3.1" opacity="0.70"/><circle cx="362.0" cy="199.0" r="2.6" opacity="0.44"/><circle cx="384.0" cy="199.0" r="2.9" opacity="0.57"/><circle cx="538.0" cy="199.0" r="2.8" opacity="0.70"/><circle cx="560.0" cy="199.0" r="3.1" opacity="0.44"/><circle cx="604.0" cy="199.0" r="2.9" opacity="0.70"/><circle cx="626.0" cy="199.0" r="2.5" opacity="0.44"/><circle cx="648.0" cy="199.0" r="2.8" opacity="0.57"/><circle cx="670.0" cy="199.0" r="3.1" opacity="0.70"/><circle cx="692.0" cy="199.0" r="2.6" opacity="0.44"/><circle cx="714.0" cy="199.0" r="2.9" opacity="0.57"/><circle cx="736.0" cy="199.0" r="2.5" opacity="0.70"/><circle cx="758.0" cy="199.0" r="2.8" opacity="0.44"/><circle cx="780.0" cy="199.0" r="3.1" opacity="0.57"/><circle cx="802.0" cy="199.0" r="2.6" opacity="0.70"/><circle cx="824.0" cy="199.0" r="2.9" opacity="0.44"/><circle cx="846.0" cy="199.0" r="2.5" opacity="0.57"/><circle cx="868.0" cy="199.0" r="2.8" opacity="0.70"/><circle cx="890.0" cy="199.0" r="3.1" opacity="0.44"/><circle cx="912.0" cy="199.0" r="2.6" opacity="0.57"/><circle cx="934.0" cy="199.0" r="2.9" opacity="0.70"/><circle cx="978.0" cy="199.0" r="2.8" opacity="0.57"/><circle cx="1000.0" cy="199.0" r="3.1" opacity="0.70"/><circle cx="1022.0" cy="199.0" r="2.6" opacity="0.44"/><circle cx="1044.0" cy="199.0" r="2.9" opacity="0.57"/><circle cx="1066.0" cy="199.0" r="2.5" opacity="0.70"/><circle cx="1088.0" cy="199.0" r="2.8" opacity="0.44"/><circle cx="1110.0" cy="199.0" r="3.1" opacity="0.57"/><circle cx="109.0" cy="221.0" r="2.5" opacity="0.39"/><circle cx="131.0" cy="221.0" r="2.8" opacity="0.52"/><circle cx="175.0" cy="221.0" r="2.6" opacity="0.39"/><circle cx="197.0" cy="221.0" r="2.9" opacity="0.52"/><circle cx="219.0" cy="221.0" r="2.5" opacity="0.66"/><circle cx="241.0" cy="221.0" r="2.8" opacity="0.39"/><circle cx="263.0" cy="221.0" r="3.1" opacity="0.52"/><circle cx="285.0" cy="221.0" r="2.6" opacity="0.66"/><circle cx="307.0" cy="221.0" r="2.9" opacity="0.39"/><circle cx="329.0" cy="221.0" r="2.5" opacity="0.52"/><circle cx="351.0" cy="221.0" r="2.8" opacity="0.66"/><circle cx="373.0" cy="221.0" r="3.1" opacity="0.39"/><circle cx="395.0" cy="221.0" r="2.6" opacity="0.52"/><circle cx="571.0" cy="221.0" r="2.8" opacity="0.39"/><circle cx="593.0" cy="221.0" r="3.1" opacity="0.52"/><circle cx="615.0" cy="221.0" r="2.6" opacity="0.66"/><circle cx="637.0" cy="221.0" r="2.9" opacity="0.39"/><circle cx="659.0" cy="221.0" r="2.5" opacity="0.52"/><circle cx="681.0" cy="221.0" r="2.8" opacity="0.66"/><circle cx="703.0" cy="221.0" r="3.1" opacity="0.39"/><circle cx="725.0" cy="221.0" r="2.6" opacity="0.52"/><circle cx="747.0" cy="221.0" r="2.9" opacity="0.66"/><circle cx="769.0" cy="221.0" r="2.5" opacity="0.39"/><circle cx="791.0" cy="221.0" r="2.8" opacity="0.52"/><circle cx="813.0" cy="221.0" r="3.1" opacity="0.66"/><circle cx="835.0" cy="221.0" r="2.6" opacity="0.39"/><circle cx="857.0" cy="221.0" r="2.9" opacity="0.52"/><circle cx="879.0" cy="221.0" r="2.5" opacity="0.66"/><circle cx="923.0" cy="221.0" r="3.1" opacity="0.52"/><circle cx="945.0" cy="221.0" r="2.6" opacity="0.66"/><circle cx="967.0" cy="221.0" r="2.9" opacity="0.39"/><circle cx="989.0" cy="221.0" r="2.5" opacity="0.52"/><circle cx="1011.0" cy="221.0" r="2.8" opacity="0.66"/><circle cx="1033.0" cy="221.0" r="3.1" opacity="0.39"/><circle cx="1055.0" cy="221.0" r="2.6" opacity="0.52"/><circle cx="1077.0" cy="221.0" r="2.9" opacity="0.66"/><circle cx="1099.0" cy="221.0" r="2.5" opacity="0.39"/><circle cx="120.0" cy="243.0" r="2.9" opacity="0.35"/><circle cx="142.0" cy="243.0" r="2.5" opacity="0.48"/><circle cx="164.0" cy="243.0" r="2.8" opacity="0.61"/><circle cx="186.0" cy="243.0" r="3.1" opacity="0.35"/><circle cx="208.0" cy="243.0" r="2.6" opacity="0.48"/><circle cx="230.0" cy="243.0" r="2.9" opacity="0.61"/><circle cx="252.0" cy="243.0" r="2.5" opacity="0.35"/><circle cx="274.0" cy="243.0" r="2.8" opacity="0.48"/><circle cx="296.0" cy="243.0" r="3.1" opacity="0.61"/><circle cx="318.0" cy="243.0" r="2.6" opacity="0.35"/><circle cx="340.0" cy="243.0" r="2.9" opacity="0.48"/><circle cx="362.0" cy="243.0" r="2.5" opacity="0.61"/><circle cx="384.0" cy="243.0" r="2.8" opacity="0.35"/><circle cx="406.0" cy="243.0" r="3.1" opacity="0.48"/><circle cx="428.0" cy="243.0" r="2.6" opacity="0.61"/><circle cx="450.0" cy="243.0" r="2.9" opacity="0.35"/><circle cx="560.0" cy="243.0" r="2.9" opacity="0.61"/><circle cx="582.0" cy="243.0" r="2.5" opacity="0.35"/><circle cx="604.0" cy="243.0" r="2.8" opacity="0.48"/><circle cx="626.0" cy="243.0" r="3.1" opacity="0.61"/><circle cx="648.0" cy="243.0" r="2.6" opacity="0.35"/><circle cx="670.0" cy="243.0" r="2.9" opacity="0.48"/><circle cx="692.0" cy="243.0" r="2.5" opacity="0.61"/><circle cx="714.0" cy="243.0" r="2.8" opacity="0.35"/><circle cx="736.0" cy="243.0" r="3.1" opacity="0.48"/><circle cx="758.0" cy="243.0" r="2.6" opacity="0.61"/><circle cx="780.0" cy="243.0" r="2.9" opacity="0.35"/><circle cx="802.0" cy="243.0" r="2.5" opacity="0.48"/><circle cx="824.0" cy="243.0" r="2.8" opacity="0.61"/><circle cx="868.0" cy="243.0" r="2.6" opacity="0.48"/><circle cx="890.0" cy="243.0" r="2.9" opacity="0.61"/><circle cx="912.0" cy="243.0" r="2.5" opacity="0.35"/><circle cx="934.0" cy="243.0" r="2.8" opacity="0.48"/><circle cx="956.0" cy="243.0" r="3.1" opacity="0.61"/><circle cx="978.0" cy="243.0" r="2.6" opacity="0.35"/><circle cx="1000.0" cy="243.0" r="2.9" opacity="0.48"/><circle cx="1022.0" cy="243.0" r="2.5" opacity="0.61"/><circle cx="1044.0" cy="243.0" r="2.8" opacity="0.35"/><circle cx="1066.0" cy="243.0" r="3.1" opacity="0.48"/><circle cx="1088.0" cy="243.0" r="2.6" opacity="0.61"/><circle cx="1110.0" cy="243.0" r="2.9" opacity="0.35"/><circle cx="307.0" cy="265.0" r="2.8" opacity="0.57"/><circle cx="329.0" cy="265.0" r="3.1" opacity="0.70"/><circle cx="351.0" cy="265.0" r="2.6" opacity="0.44"/><circle cx="373.0" cy="265.0" r="2.9" opacity="0.57"/><circle cx="395.0" cy="265.0" r="2.5" opacity="0.70"/><circle cx="439.0" cy="265.0" r="3.1" opacity="0.57"/><circle cx="461.0" cy="265.0" r="2.6" opacity="0.70"/><circle cx="483.0" cy="265.0" r="2.9" opacity="0.44"/><circle cx="549.0" cy="265.0" r="3.1" opacity="0.44"/><circle cx="571.0" cy="265.0" r="2.6" opacity="0.57"/><circle cx="593.0" cy="265.0" r="2.9" opacity="0.70"/><circle cx="615.0" cy="265.0" r="2.5" opacity="0.44"/><circle cx="637.0" cy="265.0" r="2.8" opacity="0.57"/><circle cx="659.0" cy="265.0" r="3.1" opacity="0.70"/><circle cx="681.0" cy="265.0" r="2.6" opacity="0.44"/><circle cx="703.0" cy="265.0" r="2.9" opacity="0.57"/><circle cx="725.0" cy="265.0" r="2.5" opacity="0.70"/><circle cx="747.0" cy="265.0" r="2.8" opacity="0.44"/><circle cx="769.0" cy="265.0" r="3.1" opacity="0.57"/><circle cx="813.0" cy="265.0" r="2.9" opacity="0.44"/><circle cx="835.0" cy="265.0" r="2.5" opacity="0.57"/><circle cx="857.0" cy="265.0" r="2.8" opacity="0.70"/><circle cx="879.0" cy="265.0" r="3.1" opacity="0.44"/><circle cx="901.0" cy="265.0" r="2.6" opacity="0.57"/><circle cx="923.0" cy="265.0" r="2.9" opacity="0.70"/><circle cx="945.0" cy="265.0" r="2.5" opacity="0.44"/><circle cx="967.0" cy="265.0" r="2.8" opacity="0.57"/><circle cx="989.0" cy="265.0" r="3.1" opacity="0.70"/><circle cx="1011.0" cy="265.0" r="2.6" opacity="0.44"/><circle cx="1033.0" cy="265.0" r="2.9" opacity="0.57"/><circle cx="1055.0" cy="265.0" r="2.5" opacity="0.70"/><circle cx="1077.0" cy="265.0" r="2.8" opacity="0.44"/><circle cx="1099.0" cy="265.0" r="3.1" opacity="0.57"/><circle cx="318.0" cy="287.0" r="2.5" opacity="0.52"/><circle cx="340.0" cy="287.0" r="2.8" opacity="0.66"/><circle cx="384.0" cy="287.0" r="2.6" opacity="0.52"/><circle cx="406.0" cy="287.0" r="2.9" opacity="0.66"/><circle cx="428.0" cy="287.0" r="2.5" opacity="0.39"/><circle cx="450.0" cy="287.0" r="2.8" opacity="0.52"/><circle cx="472.0" cy="287.0" r="3.1" opacity="0.66"/><circle cx="494.0" cy="287.0" r="2.6" opacity="0.39"/><circle cx="560.0" cy="287.0" r="2.8" opacity="0.39"/><circle cx="582.0" cy="287.0" r="3.1" opacity="0.52"/><circle cx="604.0" cy="287.0" r="2.6" opacity="0.66"/><circle cx="626.0" cy="287.0" r="2.9" opacity="0.39"/><circle cx="648.0" cy="287.0" r="2.5" opacity="0.52"/><circle cx="670.0" cy="287.0" r="2.8" opacity="0.66"/><circle cx="692.0" cy="287.0" r="3.1" opacity="0.39"/><circle cx="714.0" cy="287.0" r="2.6" opacity="0.52"/><circle cx="758.0" cy="287.0" r="2.5" opacity="0.39"/><circle cx="780.0" cy="287.0" r="2.8" opacity="0.52"/><circle cx="802.0" cy="287.0" r="3.1" opacity="0.66"/><circle cx="846.0" cy="287.0" r="2.9" opacity="0.52"/><circle cx="868.0" cy="287.0" r="2.5" opacity="0.66"/><circle cx="890.0" cy="287.0" r="2.8" opacity="0.39"/><circle cx="912.0" cy="287.0" r="3.1" opacity="0.52"/><circle cx="934.0" cy="287.0" r="2.6" opacity="0.66"/><circle cx="956.0" cy="287.0" r="2.9" opacity="0.39"/><circle cx="978.0" cy="287.0" r="2.5" opacity="0.52"/><circle cx="1000.0" cy="287.0" r="2.8" opacity="0.66"/><circle cx="1022.0" cy="287.0" r="3.1" opacity="0.39"/><circle cx="1044.0" cy="287.0" r="2.6" opacity="0.52"/><circle cx="1066.0" cy="287.0" r="2.9" opacity="0.66"/><circle cx="1088.0" cy="287.0" r="2.5" opacity="0.39"/><circle cx="1132.0" cy="287.0" r="3.1" opacity="0.66"/><circle cx="373.0" cy="309.0" r="2.8" opacity="0.35"/><circle cx="395.0" cy="309.0" r="3.1" opacity="0.48"/><circle cx="417.0" cy="309.0" r="2.6" opacity="0.61"/><circle cx="439.0" cy="309.0" r="2.9" opacity="0.35"/><circle cx="461.0" cy="309.0" r="2.5" opacity="0.48"/><circle cx="483.0" cy="309.0" r="2.8" opacity="0.61"/><circle cx="505.0" cy="309.0" r="3.1" opacity="0.35"/><circle cx="549.0" cy="309.0" r="2.9" opacity="0.61"/><circle cx="571.0" cy="309.0" r="2.5" opacity="0.35"/><circle cx="593.0" cy="309.0" r="2.8" opacity="0.48"/><circle cx="615.0" cy="309.0" r="3.1" opacity="0.61"/><circle cx="637.0" cy="309.0" r="2.6" opacity="0.35"/><circle cx="659.0" cy="309.0" r="2.9" opacity="0.48"/><circle cx="703.0" cy="309.0" r="2.8" opacity="0.35"/><circle cx="747.0" cy="309.0" r="2.6" opacity="0.61"/><circle cx="769.0" cy="309.0" r="2.9" opacity="0.35"/><circle cx="791.0" cy="309.0" r="2.5" opacity="0.48"/><circle cx="813.0" cy="309.0" r="2.8" opacity="0.61"/><circle cx="835.0" cy="309.0" r="3.1" opacity="0.35"/><circle cx="857.0" cy="309.0" r="2.6" opacity="0.48"/><circle cx="879.0" cy="309.0" r="2.9" opacity="0.61"/><circle cx="901.0" cy="309.0" r="2.5" opacity="0.35"/><circle cx="923.0" cy="309.0" r="2.8" opacity="0.48"/><circle cx="945.0" cy="309.0" r="3.1" opacity="0.61"/><circle cx="967.0" cy="309.0" r="2.6" opacity="0.35"/><circle cx="989.0" cy="309.0" r="2.9" opacity="0.48"/><circle cx="1011.0" cy="309.0" r="2.5" opacity="0.61"/><circle cx="1033.0" cy="309.0" r="2.8" opacity="0.35"/><circle cx="1077.0" cy="309.0" r="2.6" opacity="0.61"/><circle cx="1099.0" cy="309.0" r="2.9" opacity="0.35"/><circle cx="1121.0" cy="309.0" r="2.5" opacity="0.48"/><circle cx="384.0" cy="331.0" r="2.5" opacity="0.70"/><circle cx="406.0" cy="331.0" r="2.8" opacity="0.44"/><circle cx="428.0" cy="331.0" r="3.1" opacity="0.57"/><circle cx="450.0" cy="331.0" r="2.6" opacity="0.70"/><circle cx="472.0" cy="331.0" r="2.9" opacity="0.44"/><circle cx="494.0" cy="331.0" r="2.5" opacity="0.57"/><circle cx="560.0" cy="331.0" r="2.6" opacity="0.57"/><circle cx="582.0" cy="331.0" r="2.9" opacity="0.70"/><circle cx="604.0" cy="331.0" r="2.5" opacity="0.44"/><circle cx="648.0" cy="331.0" r="3.1" opacity="0.70"/><circle cx="670.0" cy="331.0" r="2.6" opacity="0.44"/><circle cx="692.0" cy="331.0" r="2.9" opacity="0.57"/><circle cx="714.0" cy="331.0" r="2.5" opacity="0.70"/><circle cx="758.0" cy="331.0" r="3.1" opacity="0.57"/><circle cx="780.0" cy="331.0" r="2.6" opacity="0.70"/><circle cx="802.0" cy="331.0" r="2.9" opacity="0.44"/><circle cx="824.0" cy="331.0" r="2.5" opacity="0.57"/><circle cx="846.0" cy="331.0" r="2.8" opacity="0.70"/><circle cx="868.0" cy="331.0" r="3.1" opacity="0.44"/><circle cx="890.0" cy="331.0" r="2.6" opacity="0.57"/><circle cx="912.0" cy="331.0" r="2.9" opacity="0.70"/><circle cx="934.0" cy="331.0" r="2.5" opacity="0.44"/><circle cx="956.0" cy="331.0" r="2.8" opacity="0.57"/><circle cx="978.0" cy="331.0" r="3.1" opacity="0.70"/><circle cx="1022.0" cy="331.0" r="2.9" opacity="0.57"/><circle cx="1044.0" cy="331.0" r="2.5" opacity="0.70"/><circle cx="1066.0" cy="331.0" r="2.8" opacity="0.44"/><circle cx="1088.0" cy="331.0" r="3.1" opacity="0.57"/><circle cx="373.0" cy="353.0" r="2.6" opacity="0.52"/><circle cx="395.0" cy="353.0" r="2.9" opacity="0.66"/><circle cx="417.0" cy="353.0" r="2.5" opacity="0.39"/><circle cx="439.0" cy="353.0" r="2.8" opacity="0.52"/><circle cx="461.0" cy="353.0" r="3.1" opacity="0.66"/><circle cx="483.0" cy="353.0" r="2.6" opacity="0.39"/><circle cx="549.0" cy="353.0" r="2.8" opacity="0.39"/><circle cx="593.0" cy="353.0" r="2.6" opacity="0.66"/><circle cx="615.0" cy="353.0" r="2.9" opacity="0.39"/><circle cx="637.0" cy="353.0" r="2.5" opacity="0.52"/><circle cx="659.0" cy="353.0" r="2.8" opacity="0.66"/><circle cx="681.0" cy="353.0" r="3.1" opacity="0.39"/><circle cx="703.0" cy="353.0" r="2.6" opacity="0.52"/><circle cx="725.0" cy="353.0" r="2.9" opacity="0.66"/><circle cx="747.0" cy="353.0" r="2.5" opacity="0.39"/><circle cx="769.0" cy="353.0" r="2.8" opacity="0.52"/><circle cx="791.0" cy="353.0" r="3.1" opacity="0.66"/><circle cx="813.0" cy="353.0" r="2.6" opacity="0.39"/><circle cx="835.0" cy="353.0" r="2.9" opacity="0.52"/><circle cx="857.0" cy="353.0" r="2.5" opacity="0.66"/><circle cx="879.0" cy="353.0" r="2.8" opacity="0.39"/><circle cx="901.0" cy="353.0" r="3.1" opacity="0.52"/><circle cx="923.0" cy="353.0" r="2.6" opacity="0.66"/><circle cx="967.0" cy="353.0" r="2.5" opacity="0.52"/><circle cx="989.0" cy="353.0" r="2.8" opacity="0.66"/><circle cx="362.0" cy="375.0" r="2.8" opacity="0.35"/><circle cx="384.0" cy="375.0" r="3.1" opacity="0.48"/><circle cx="406.0" cy="375.0" r="2.6" opacity="0.61"/><circle cx="428.0" cy="375.0" r="2.9" opacity="0.35"/><circle cx="450.0" cy="375.0" r="2.5" opacity="0.48"/><circle cx="472.0" cy="375.0" r="2.8" opacity="0.61"/><circle cx="494.0" cy="375.0" r="3.1" opacity="0.35"/><circle cx="560.0" cy="375.0" r="2.5" opacity="0.35"/><circle cx="582.0" cy="375.0" r="2.8" opacity="0.48"/><circle cx="604.0" cy="375.0" r="3.1" opacity="0.61"/><circle cx="626.0" cy="375.0" r="2.6" opacity="0.35"/><circle cx="648.0" cy="375.0" r="2.9" opacity="0.48"/><circle cx="670.0" cy="375.0" r="2.5" opacity="0.61"/><circle cx="692.0" cy="375.0" r="2.8" opacity="0.35"/><circle cx="714.0" cy="375.0" r="3.1" opacity="0.48"/><circle cx="758.0" cy="375.0" r="2.9" opacity="0.35"/><circle cx="780.0" cy="375.0" r="2.5" opacity="0.48"/><circle cx="802.0" cy="375.0" r="2.8" opacity="0.61"/><circle cx="824.0" cy="375.0" r="3.1" opacity="0.35"/><circle cx="912.0" cy="375.0" r="2.8" opacity="0.48"/><circle cx="934.0" cy="375.0" r="3.1" opacity="0.61"/><circle cx="956.0" cy="375.0" r="2.6" opacity="0.35"/><circle cx="978.0" cy="375.0" r="2.9" opacity="0.48"/><circle cx="1000.0" cy="375.0" r="2.5" opacity="0.61"/><circle cx="1022.0" cy="375.0" r="2.8" opacity="0.35"/><circle cx="1044.0" cy="375.0" r="3.1" opacity="0.48"/><circle cx="1066.0" cy="375.0" r="2.6" opacity="0.61"/><circle cx="373.0" cy="397.0" r="2.5" opacity="0.70"/><circle cx="395.0" cy="397.0" r="2.8" opacity="0.44"/><circle cx="417.0" cy="397.0" r="3.1" opacity="0.57"/><circle cx="439.0" cy="397.0" r="2.6" opacity="0.70"/><circle cx="483.0" cy="397.0" r="2.5" opacity="0.57"/><circle cx="571.0" cy="397.0" r="2.9" opacity="0.70"/><circle cx="593.0" cy="397.0" r="2.5" opacity="0.44"/><circle cx="615.0" cy="397.0" r="2.8" opacity="0.57"/><circle cx="637.0" cy="397.0" r="3.1" opacity="0.70"/><circle cx="659.0" cy="397.0" r="2.6" opacity="0.44"/><circle cx="681.0" cy="397.0" r="2.9" opacity="0.57"/><circle cx="703.0" cy="397.0" r="2.5" opacity="0.70"/><circle cx="725.0" cy="397.0" r="2.8" opacity="0.44"/><circle cx="791.0" cy="397.0" r="2.9" opacity="0.44"/><circle cx="967.0" cy="397.0" r="3.1" opacity="0.70"/><circle cx="989.0" cy="397.0" r="2.6" opacity="0.44"/><circle cx="1011.0" cy="397.0" r="2.9" opacity="0.57"/><circle cx="1033.0" cy="397.0" r="2.5" opacity="0.70"/><circle cx="1055.0" cy="397.0" r="2.8" opacity="0.44"/><circle cx="1077.0" cy="397.0" r="3.1" opacity="0.57"/><circle cx="1099.0" cy="397.0" r="2.6" opacity="0.70"/><circle cx="362.0" cy="419.0" r="2.6" opacity="0.52"/><circle cx="384.0" cy="419.0" r="2.9" opacity="0.66"/><circle cx="428.0" cy="419.0" r="2.8" opacity="0.52"/><circle cx="450.0" cy="419.0" r="3.1" opacity="0.66"/><circle cx="472.0" cy="419.0" r="2.6" opacity="0.39"/><circle cx="582.0" cy="419.0" r="2.6" opacity="0.66"/><circle cx="604.0" cy="419.0" r="2.9" opacity="0.39"/><circle cx="626.0" cy="419.0" r="2.5" opacity="0.52"/><circle cx="648.0" cy="419.0" r="2.8" opacity="0.66"/><circle cx="670.0" cy="419.0" r="3.1" opacity="0.39"/><circle cx="692.0" cy="419.0" r="2.6" opacity="0.52"/><circle cx="714.0" cy="419.0" r="2.9" opacity="0.66"/><circle cx="934.0" cy="419.0" r="2.9" opacity="0.39"/><circle cx="956.0" cy="419.0" r="2.5" opacity="0.52"/><circle cx="978.0" cy="419.0" r="2.8" opacity="0.66"/><circle cx="1000.0" cy="419.0" r="3.1" opacity="0.39"/><circle cx="1022.0" cy="419.0" r="2.6" opacity="0.52"/><circle cx="1044.0" cy="419.0" r="2.9" opacity="0.66"/><circle cx="1066.0" cy="419.0" r="2.5" opacity="0.39"/><circle cx="1088.0" cy="419.0" r="2.8" opacity="0.52"/><circle cx="373.0" cy="441.0" r="3.1" opacity="0.48"/><circle cx="395.0" cy="441.0" r="2.6" opacity="0.61"/><circle cx="417.0" cy="441.0" r="2.9" opacity="0.35"/><circle cx="439.0" cy="441.0" r="2.5" opacity="0.48"/><circle cx="461.0" cy="441.0" r="2.8" opacity="0.61"/><circle cx="483.0" cy="441.0" r="3.1" opacity="0.35"/><circle cx="615.0" cy="441.0" r="2.6" opacity="0.35"/><circle cx="637.0" cy="441.0" r="2.9" opacity="0.48"/><circle cx="659.0" cy="441.0" r="2.5" opacity="0.61"/><circle cx="681.0" cy="441.0" r="2.8" opacity="0.35"/><circle cx="703.0" cy="441.0" r="3.1" opacity="0.48"/><circle cx="923.0" cy="441.0" r="3.1" opacity="0.61"/><circle cx="945.0" cy="441.0" r="2.6" opacity="0.35"/><circle cx="967.0" cy="441.0" r="2.9" opacity="0.48"/><circle cx="989.0" cy="441.0" r="2.5" opacity="0.61"/><circle cx="1011.0" cy="441.0" r="2.8" opacity="0.35"/><circle cx="1033.0" cy="441.0" r="3.1" opacity="0.48"/><circle cx="1055.0" cy="441.0" r="2.6" opacity="0.61"/><circle cx="1077.0" cy="441.0" r="2.9" opacity="0.35"/><circle cx="384.0" cy="463.0" r="2.8" opacity="0.44"/><circle cx="406.0" cy="463.0" r="3.1" opacity="0.57"/><circle cx="428.0" cy="463.0" r="2.6" opacity="0.70"/><circle cx="450.0" cy="463.0" r="2.9" opacity="0.44"/><circle cx="472.0" cy="463.0" r="2.5" opacity="0.57"/><circle cx="648.0" cy="463.0" r="2.6" opacity="0.44"/><circle cx="692.0" cy="463.0" r="2.5" opacity="0.70"/><circle cx="934.0" cy="463.0" r="2.8" opacity="0.57"/><circle cx="956.0" cy="463.0" r="3.1" opacity="0.70"/><circle cx="978.0" cy="463.0" r="2.6" opacity="0.44"/><circle cx="1000.0" cy="463.0" r="2.9" opacity="0.57"/><circle cx="1022.0" cy="463.0" r="2.5" opacity="0.70"/><circle cx="1066.0" cy="463.0" r="3.1" opacity="0.57"/><circle cx="1088.0" cy="463.0" r="2.6" opacity="0.70"/><circle cx="1110.0" cy="463.0" r="2.9" opacity="0.44"/><circle cx="1132.0" cy="463.0" r="2.5" opacity="0.57"/><circle cx="1154.0" cy="463.0" r="2.8" opacity="0.70"/><circle cx="395.0" cy="485.0" r="2.5" opacity="0.39"/><circle cx="417.0" cy="485.0" r="2.8" opacity="0.52"/><circle cx="439.0" cy="485.0" r="3.1" opacity="0.66"/><circle cx="461.0" cy="485.0" r="2.6" opacity="0.39"/><circle cx="483.0" cy="485.0" r="2.9" opacity="0.52"/><circle cx="1011.0" cy="485.0" r="2.6" opacity="0.52"/><circle cx="1121.0" cy="485.0" r="2.6" opacity="0.39"/><circle cx="1143.0" cy="485.0" r="2.9" opacity="0.52"/></g>
</svg>